<svg id="Layer_1" data-name="Layer 1" xmlns="http://www.w3.org/2000/svg" xmlns:xlink="http://www.w3.org/1999/xlink" viewBox="0 0 401 401"><defs><style>.cls-1{fill:#fff;stroke:#19365d;stroke-miterlimit:10;}.cls-2{fill:#5f6c7f;}.cls-3{fill:#c9cfd4;}.cls-4{fill:#4ab6eb;}.cls-5{fill:#3ca9e6;}.cls-6{fill:url(#linear-gradient);}.cls-7{fill:#f5faf5;}</style><linearGradient id="linear-gradient" x1="303.11" y1="382.48" x2="306.93" y2="500.21" gradientUnits="userSpaceOnUse"><stop offset="0" stop-color="#8fc857"/><stop offset="1" stop-color="#007400"/></linearGradient></defs><title>react-customizable-dropdown-bg</title><rect class="cls-1" x="0.5" y="0.5" width="400" height="400" rx="25" ry="25"/><path class="cls-2" d="M304.46,329.44H458.68c11.09,0,13.29,2.12,13.3,13,0,5.82.05,11.64,0,17.46,0,8.78-3,11.67-11.85,11.67q-67.19,0-134.38,0l-176,.06c-11.23,0-14-2.69-14-13.71,0-6,0-12,0-17.94,0-7,2.78-10.07,10.11-10.29,9.08-.28,18.18-.25,27.27-.25Q238.77,329.42,304.46,329.44Z" transform="translate(-102.54 -105.66)"/><path class="cls-3" d="M304.4,316.44H148.23c-9.76,0-12.79-2.94-12.79-12.37,0-5.82,0-11.64,0-17.45,0-8.58,3.45-11.9,12.35-11.9H422.45c12.89,0,25.78,0,38.67,0,8,0,10.65,2.63,10.66,10.5,0,7.11,0,14.22,0,21.33s-2.83,9.9-10.22,9.9Z" transform="translate(-102.54 -105.66)"/><path class="cls-4" d="M371.47,241.94c-1.45.79-1.85,1.7-1.46,3.51.88,4.1,1.27,8.29,1.8,12.46.2,1.56,1.58,4.2-1.57,3.81-2.65-.33-7,2.87-7.83-2.77-.47-3.2-1.33-6.34-1.65-9.55-.29-2.88-1.64-3.42-4.28-2.93-8.11,1.5-16.12,3.51-24.4,4.09-2.27.16-3.38,2.09-4.27,3.72-4,7.37-10.3,9.17-18.47,7.12,1.49-3.17,5-5,6.43-8.72H292.59l6.64,8.65c-7.33,1.28-13.48,1.51-17.38-5.64-2-3.74-5.45-5.3-10.1-5.69a130.2,130.2,0,0,1-19.9-3.76c-2.75-.68-3.52,0-3.88,2.41-.51,3.35-1.44,6.66-1.71,10-.41,5.05-4.23,2.8-6.72,3.21-3.41.56-3.26-1.84-3-4,.32-2.72.39-5.58,1.31-8.11,1.69-4.62.62-7.6-4.23-9.11l1-8.62c1.4-.42,2.55.3,3.77.75,2.1.77,3.43.21,4-2,2-7.33,5.15-14.23,8-21.26a6.27,6.27,0,0,0-.09-5.07c-2.62-6.41-5.18-12.86-7.52-19.37-.93-2.6-2-3.82-4.87-2.47a21.7,21.7,0,0,1-3.27,1c-.33-3.12-4.1-4.56-4-7.88,1.9-.83,3.75-1.78,5.7-2.44,1.74-.59,2.84-1.43,2.59-3.37,3.21.11,6.24-1.53,9.51-.93,5.13-.17,10-2.2,15-2.51,9.44-.57,17.55-3.29,22.94-11.43,3.19,1,4.22,3.93,6,6.23V163c-4.16,1.92-5,5.87-6.14,9.62a5.32,5.32,0,0,0-4.1,2.27c-6.54,9.52-13.23,18.93-18.49,29.24a6.17,6.17,0,0,0,.16,6.33A234.58,234.58,0,0,0,282,239.81c1.22,1.66,2.53,2.79,4.84,2.77,11.73-.07,23.46,0,35.19,0a4.62,4.62,0,0,0,4.12-2.11,224.32,224.32,0,0,0,18.78-30.16,6.13,6.13,0,0,0-.17-6.37A271.57,271.57,0,0,0,329.5,179c-2.88-4.12-6-7.14-11.46-6.68,0-6.69,1.55-7.94,11.32-9.36a9.61,9.61,0,0,0,2.54,1.35c8.5,1.56,17,3,25.53,4.53,2.26.4,2.85-.87,3.12-2.66.64-4.27,1.33-8.53,2-12.79,2.75-1.23,4.84-.42,6.41,2,.6.92,1.14,1.89,2.48,1.88.3,5.12-1.5,10-1.8,15.06l-1.13,9.26c-.81.15-1.59.28-1.93,1.21q-4.29,11.52-8.63,23a4.86,4.86,0,0,0,.3,3.7c2.73,7.21,5.46,14.43,8,21.7.78,2.2,1.71,2.9,3.91,1.62a13.41,13.41,0,0,1,3.26-.92c1.23,2.17,1.53,4.24-.63,6.08C371.6,239,371.45,240.46,371.47,241.94Zm-101.84-2.19-12.32-20.89c-2.92,5.3-4.17,10.14-5.65,14.9-.52,1.69-.15,2.74,1.79,3.19C258.55,238.12,263.58,239.68,269.62,239.75Zm81.86-21.33a226.13,226.13,0,0,1-13.14,21.82c6.48-1.3,11.75-2.4,17.05-3.4,2.1-.4,2.18-1.43,1.55-3.13C355.21,229.06,353.59,224.35,351.49,218.42Zm-81.74-43.64C263.84,176,258.9,176.94,254,178c-1.44.31-3.07.69-2.37,2.79,1.59,4.79,2.85,9.71,5.82,14.53Zm81.93,21.46c1.93-5.77,3.43-10.16,4.85-14.57.47-1.46.55-2.84-1.51-3.38a73.32,73.32,0,0,0-15.75-2.88Z" transform="translate(-102.54 -105.66)"/><path class="cls-5" d="M292.33,161.22c-1.75-2.3-2.77-5.26-6-6.23,2.75-3,5.44-6,8.28-9,1.34-1.38,2-2.29,0-3.81-8.76-6.94-17.76-13.4-29-16.08-10.38-2.49-16,.84-18.32,11.14-2.41,10.62-1,21.15,1,31.65-3.26-.6-6.29,1-9.51.93-2.86-10.12-3-20.43-2-30.78a32.46,32.46,0,0,1,2.93-10.24c4.82-10.6,13.19-15,24.83-12.77a68.71,68.71,0,0,1,32.59,16.34c4.85,4.23,7,4.45,12.26.64,8.68-6.24,17.67-12,27.94-15.43,17.71-5.95,30.06.95,33.61,18.91,1.35,6.83,1.89,13.78.36,20.72-1.34,0-1.88-1-2.48-1.88-1.57-2.4-3.66-3.22-6.41-2,0-6.77,0-13.55-2.63-20-2.81-6.81-7.08-9.16-14.39-7.69-12,2.42-21.92,8.83-31.26,16.27-2.22,1.77-1,3,.27,4.32A194.47,194.47,0,0,1,329.36,163c-9.77,1.42-11.28,2.67-11.32,9.36-10.62-.9-21.23.19-31.84.29,1.15-3.76,2-7.71,6.14-9.62H315.6c-.3-.93-.31-1.46-.59-1.75-2.77-3-5.69-5.79-8.35-8.84-1.72-2-2.93-1.82-4.72-.06C298.83,155.39,296.06,158.81,292.33,161.22Z" transform="translate(-102.54 -105.66)"/><path class="cls-5" d="M371.47,241.94c0-1.48.13-2.91,1.37-4,2.16-1.83,1.86-3.91.63-6.08,2.09-.93,4.2-1.83,6.26-2.81,7-3.32,14-6.58,19.5-12.15,6.45-6.52,6.46-12,.13-18.52a49.08,49.08,0,0,0-9-6.82c-6.82-4.35-14.7-6.46-21.89-10l1.13-9.26c10.72,3.4,21,7.63,30.32,14a39.81,39.81,0,0,1,9.49,9.14c6.23,8.42,6,16.75-.48,25-4.86,6.17-11.5,10.15-18.27,13.88A97.56,97.56,0,0,1,371.47,241.94Z" transform="translate(-102.54 -105.66)"/><path class="cls-5" d="M234.59,232l-1,8.62c-12.38-3.88-23.93-9.24-32.78-18.88-8.68-9.45-8.44-19.73.44-28.91,8.12-8.39,18.25-13.6,29.33-17.2-.09,3.32,3.68,4.77,4,7.88-6.22,3.29-12.9,5.67-18.76,9.68-15.09,10.31-15,18.75.15,28.83C221.9,226,228.47,228.59,234.59,232Z" transform="translate(-102.54 -105.66)"/><path class="cls-6" d="M472.11,397c0-9.6-2.9-12.41-12.72-12.42l-298.13-.06c-5.29,0-10.59-.12-15.87.06-6.25.21-9.73,3.76-9.77,9.83,0,7.44,0,14.88.06,22.32,0,2.64.34,5.19,2.92,6.79,2.59,3.57,6.5,3.31,10.28,3.31q51.92,0,103.85-.07c4.71,0,8.08,1.24,9.13,6.12-.68,4.06-3.32,5.59-7.31,5.56-4.27,0-8.54,0-12.8.13-1.65.07-3.95-.89-4.76,1.33s.09,4.33,2.13,5.91c4.12,3.17,8.16,6.44,12.23,9.67l9.26,7.76a58.77,58.77,0,0,0,11.55,9.47c6.38,7,14.38,12.24,21.47,18.47,8.43,7.39,11.24,7.59,19.83.23,7.53-6.45,16-11.91,22.42-19.56,1.5.15,2.35-.9,3.38-1.68,5.29-4,9.45-9.25,15.09-12.85,5.11-4,10.23-8,15.3-12,1.9-1.51,2.12-3.49,1.26-5.64-.67-1.7-2.21-1.07-3.39-1.09-4.43-.1-8.86,0-13.29-.09-7.17-.07-9-2.54-7.12-9.37,2-2.52,4.84-2.26,7.61-2.26q52.47,0,104.93-.1c2.09,0,4.1,0,6.2-1,6.84-3.41,6.4-9.21,5.78-15.19C471.79,406,472.1,401.5,472.11,397Z" transform="translate(-102.54 -105.66)"/><path class="cls-7" d="M351.49,218.42c2.11,5.93,3.73,10.64,5.46,15.3.63,1.69.56,2.73-1.55,3.13-5.3,1-10.58,2.1-17.05,3.4A226.13,226.13,0,0,0,351.49,218.42Z" transform="translate(-102.54 -105.66)"/><path class="cls-4" d="M304.23,229c-11.76-.13-21.93-10.12-21.78-21.41.16-11.8,9.75-20.64,22.25-20.52,11.74.11,21,9.21,21.1,20.64A21.24,21.24,0,0,1,304.23,229Z" transform="translate(-102.54 -105.66)"/></svg>